<svg width="45" height="45" viewBox="0 0 45 45" fill="none" xmlns="http://www.w3.org/2000/svg">
<g filter="url(#filter0_d_84_235)">
<path d="M22.5204 0.5C21.1168 0.5 19.7507 0.660642 18.4401 0.965194C11.7755 2.50937 6.52982 7.75502 4.98564 14.419C4.68109 15.7303 4.52045 17.0964 4.52045 18.5C4.52045 28.4411 12.5793 36.5 22.5204 36.5C23.9241 36.5 25.2902 36.3394 26.6014 36.0348C33.2654 34.4906 38.5111 29.2456 40.0559 22.5823C40.3605 21.2711 40.5211 19.9043 40.5211 18.5C40.5211 8.5589 32.4615 0.5 22.5204 0.5ZM22.5204 29.7724C21.1918 29.7724 19.9174 29.5428 18.734 29.1205C15.5546 27.9866 13.0345 25.4665 11.9006 22.2871C11.4783 21.1037 11.2487 19.8286 11.2487 18.5C11.2487 12.2744 16.2949 7.22758 22.5204 7.22758C23.8491 7.22758 25.1235 7.45716 26.3069 7.87952C29.4863 9.01339 32.0071 11.5335 33.1409 14.7129C33.5633 15.8963 33.7929 17.1714 33.7929 18.5C33.7929 24.7256 28.746 29.7724 22.5204 29.7724Z" fill="url(#paint0_linear_84_235)"/>
<path d="M22.5204 11.2349C18.5084 11.2349 15.2554 14.4879 15.2554 18.4999C15.2554 22.512 18.5084 25.765 22.5204 25.765C26.5325 25.765 29.7855 22.512 29.7855 18.4999C29.7855 14.4879 26.5332 11.2349 22.5204 11.2349ZM22.5204 22.8928C20.0947 22.8928 18.1275 20.9263 18.1275 18.4999C18.1275 16.0736 20.0947 14.107 22.5204 14.107C24.9461 14.107 26.9133 16.0736 26.9133 18.4999C26.9133 20.9263 24.9468 22.8928 22.5204 22.8928Z" fill="#FEFCFE"/>
<path d="M26.3069 7.87966C25.1235 7.4573 23.8491 7.22772 22.5204 7.22772C16.2949 7.22772 11.2487 12.2746 11.2487 18.5001C11.2487 19.8288 11.4783 21.1039 11.9006 22.2873C10.4622 21.7438 9.11347 20.893 7.95551 19.7351C6.43609 18.2157 5.44613 16.3676 4.98563 14.4191C6.5298 7.75516 11.7755 2.50951 18.4401 0.965332C20.3879 1.42584 22.236 2.4158 23.7554 3.93521C24.9127 5.09251 25.7634 6.44124 26.3069 7.87966Z" fill="url(#paint1_linear_84_235)"/>
<path d="M40.0559 22.5824C38.5111 29.2457 33.2654 34.4907 26.6014 36.0348C24.6536 35.5743 22.8056 34.5844 21.2862 33.065C20.1282 31.907 19.2775 30.5583 18.7339 29.1205C19.9173 29.5429 21.1918 29.7725 22.5204 29.7725C28.746 29.7725 33.7928 24.7256 33.7928 18.5C33.7928 17.1714 33.5633 15.8963 33.1409 14.7129C34.5787 15.2564 35.9274 16.1071 37.0854 17.2651C38.6048 18.7845 39.5954 20.6339 40.0559 22.5824Z" fill="url(#paint2_linear_84_235)"/>
<path d="M13.6168 31.1713C15.6973 31.1713 17.3839 29.4848 17.3839 27.4043C17.3839 25.3238 15.6973 23.6372 13.6168 23.6372C11.5363 23.6372 9.84976 25.3238 9.84976 27.4043C9.84976 29.4848 11.5363 31.1713 13.6168 31.1713Z" fill="url(#paint3_linear_84_235)"/>
<path d="M31.4575 13.3305C33.538 13.3305 35.2246 11.6439 35.2246 9.56346C35.2246 7.48296 33.538 5.79639 31.4575 5.79639C29.377 5.79639 27.6904 7.48296 27.6904 9.56346C27.6904 11.6439 29.377 13.3305 31.4575 13.3305Z" fill="url(#paint4_linear_84_235)"/>
</g>
<defs>
<filter id="filter0_d_84_235" x="0.520447" y="0.5" width="44.0007" height="44" filterUnits="userSpaceOnUse" color-interpolation-filters="sRGB">
<feFlood flood-opacity="0" result="BackgroundImageFix"/>
<feColorMatrix in="SourceAlpha" type="matrix" values="0 0 0 0 0 0 0 0 0 0 0 0 0 0 0 0 0 0 127 0" result="hardAlpha"/>
<feOffset dy="4"/>
<feGaussianBlur stdDeviation="2"/>
<feComposite in2="hardAlpha" operator="out"/>
<feColorMatrix type="matrix" values="0 0 0 0 0 0 0 0 0 0 0 0 0 0 0 0 0 0 0.25 0"/>
<feBlend mode="normal" in2="BackgroundImageFix" result="effect1_dropShadow_84_235"/>
<feBlend mode="normal" in="SourceGraphic" in2="effect1_dropShadow_84_235" result="shape"/>
</filter>
<linearGradient id="paint0_linear_84_235" x1="35.076" y1="6.63588" x2="10.3558" y2="29.9953" gradientUnits="userSpaceOnUse">
<stop stop-color="#F38856"/>
<stop offset="0.23" stop-color="#F0625C"/>
<stop offset="1" stop-color="#5C3DAB"/>
</linearGradient>
<linearGradient id="paint1_linear_84_235" x1="21.3812" y1="3.55168" x2="7.3203" y2="17.537" gradientUnits="userSpaceOnUse">
<stop stop-color="#F67986"/>
<stop offset="1" stop-color="#8951BA"/>
</linearGradient>
<linearGradient id="paint2_linear_84_235" x1="37.4629" y1="19.7196" x2="23.402" y2="33.7055" gradientUnits="userSpaceOnUse">
<stop stop-color="#F67986"/>
<stop offset="1" stop-color="#8951BA"/>
</linearGradient>
<linearGradient id="paint3_linear_84_235" x1="16.3672" y1="24.8306" x2="10.8658" y2="29.9779" gradientUnits="userSpaceOnUse">
<stop stop-color="#A267B9"/>
<stop offset="1" stop-color="#704BB4"/>
</linearGradient>
<linearGradient id="paint4_linear_84_235" x1="33.7473" y1="7.42022" x2="29.9916" y2="10.9349" gradientUnits="userSpaceOnUse">
<stop stop-color="#F7A8A5"/>
<stop offset="0.97" stop-color="#D074C4"/>
<stop offset="1" stop-color="#CF76A9"/>
</linearGradient>
</defs>
</svg>
