<svg width="120" height="45" viewBox="0 0 120 45" fill="none" xmlns="http://www.w3.org/2000/svg">
<g filter="url(#filter0_d_84_244)">
<path d="M22.5204 0.5C21.1168 0.5 19.7507 0.660642 18.4401 0.965194C11.7755 2.50937 6.52982 7.75502 4.98564 14.419C4.68109 15.7303 4.52045 17.0964 4.52045 18.5C4.52045 28.4411 12.5793 36.5 22.5204 36.5C23.9241 36.5 25.2902 36.3394 26.6014 36.0348C33.2654 34.4906 38.5111 29.2456 40.0559 22.5823C40.3605 21.2711 40.5211 19.9043 40.5211 18.5C40.5211 8.5589 32.4615 0.5 22.5204 0.5ZM22.5204 29.7724C21.1918 29.7724 19.9174 29.5428 18.734 29.1205C15.5546 27.9866 13.0345 25.4665 11.9006 22.2871C11.4783 21.1037 11.2487 19.8286 11.2487 18.5C11.2487 12.2744 16.2949 7.22758 22.5204 7.22758C23.8491 7.22758 25.1235 7.45716 26.3069 7.87952C29.4863 9.01339 32.0071 11.5335 33.1409 14.7129C33.5633 15.8963 33.7929 17.1714 33.7929 18.5C33.7929 24.7256 28.746 29.7724 22.5204 29.7724Z" fill="url(#paint0_linear_84_244)"/>
<path d="M22.5204 11.2349C18.5084 11.2349 15.2554 14.4879 15.2554 18.4999C15.2554 22.512 18.5084 25.765 22.5204 25.765C26.5325 25.765 29.7855 22.512 29.7855 18.4999C29.7855 14.4879 26.5332 11.2349 22.5204 11.2349ZM22.5204 22.8928C20.0947 22.8928 18.1275 20.9263 18.1275 18.4999C18.1275 16.0736 20.0947 14.107 22.5204 14.107C24.9461 14.107 26.9133 16.0736 26.9133 18.4999C26.9133 20.9263 24.9468 22.8928 22.5204 22.8928Z" fill="#FEFCFE"/>
<path d="M26.3069 7.87966C25.1235 7.4573 23.8491 7.22772 22.5204 7.22772C16.2949 7.22772 11.2487 12.2746 11.2487 18.5001C11.2487 19.8288 11.4783 21.1039 11.9006 22.2873C10.4622 21.7438 9.11347 20.893 7.95551 19.7351C6.43609 18.2157 5.44613 16.3676 4.98563 14.4191C6.5298 7.75516 11.7755 2.50951 18.4401 0.965332C20.3879 1.42584 22.236 2.4158 23.7554 3.93521C24.9127 5.09251 25.7634 6.44124 26.3069 7.87966Z" fill="url(#paint1_linear_84_244)"/>
<path d="M40.0559 22.5824C38.5111 29.2457 33.2654 34.4907 26.6014 36.0348C24.6536 35.5743 22.8056 34.5844 21.2862 33.065C20.1282 31.907 19.2775 30.5583 18.7339 29.1205C19.9173 29.5429 21.1918 29.7725 22.5204 29.7725C28.746 29.7725 33.7928 24.7256 33.7928 18.5C33.7928 17.1714 33.5633 15.8963 33.1409 14.7129C34.5787 15.2564 35.9274 16.1071 37.0854 17.2651C38.6048 18.7845 39.5954 20.6339 40.0559 22.5824Z" fill="url(#paint2_linear_84_244)"/>
<path d="M13.6168 31.1713C15.6973 31.1713 17.3839 29.4848 17.3839 27.4043C17.3839 25.3238 15.6973 23.6372 13.6168 23.6372C11.5363 23.6372 9.84976 25.3238 9.84976 27.4043C9.84976 29.4848 11.5363 31.1713 13.6168 31.1713Z" fill="url(#paint3_linear_84_244)"/>
<path d="M31.4575 13.3305C33.538 13.3305 35.2246 11.6439 35.2246 9.56346C35.2246 7.48296 33.538 5.79639 31.4575 5.79639C29.377 5.79639 27.6904 7.48296 27.6904 9.56346C27.6904 11.6439 29.377 13.3305 31.4575 13.3305Z" fill="url(#paint4_linear_84_244)"/>
</g>
<path d="M119.281 15.1088V17.0974H113.009V15.1088H119.281ZM114.558 12.4951H117.129V22.7366C117.129 23.0822 117.181 23.3474 117.285 23.532C117.394 23.712 117.536 23.8351 117.711 23.9014C117.886 23.9677 118.08 24.0008 118.293 24.0008C118.454 24.0008 118.601 23.989 118.734 23.9653C118.871 23.9416 118.975 23.9203 119.046 23.9014L119.48 25.9113C119.342 25.9587 119.146 26.0107 118.89 26.0676C118.639 26.1244 118.331 26.1575 117.967 26.167C117.323 26.1859 116.743 26.0889 116.227 25.8758C115.711 25.658 115.301 25.3218 114.998 24.8673C114.7 24.4127 114.553 23.8445 114.558 23.1627V12.4951Z" fill="#D4D4D8"/>
<path d="M108.618 26.0176V15.1085H111.189V26.0176H108.618ZM109.911 13.5602C109.504 13.5602 109.153 13.4253 108.86 13.1554C108.566 12.8808 108.42 12.5517 108.42 12.1682C108.42 11.7799 108.566 11.4509 108.86 11.181C109.153 10.9064 109.504 10.769 109.911 10.769C110.323 10.769 110.673 10.9064 110.962 11.181C111.256 11.4509 111.403 11.7799 111.403 12.1682C111.403 12.5517 111.256 12.8808 110.962 13.1554C110.673 13.4253 110.323 13.5602 109.911 13.5602Z" fill="#D4D4D8"/>
<path d="M96.1344 26.0176V11.4722H98.7054V16.9125H98.812C98.9445 16.6474 99.1316 16.3656 99.373 16.0673C99.6145 15.7643 99.9412 15.5063 100.353 15.2932C100.765 15.0754 101.291 14.9665 101.93 14.9665C102.773 14.9665 103.533 15.1819 104.21 15.6128C104.892 16.0389 105.431 16.671 105.829 17.5091C106.231 18.3424 106.433 19.3652 106.433 20.5773C106.433 21.7752 106.236 22.7932 105.843 23.6313C105.45 24.4693 104.915 25.1085 104.238 25.5489C103.561 25.9892 102.794 26.2094 101.937 26.2094C101.312 26.2094 100.793 26.1052 100.382 25.8969C99.9696 25.6886 99.6382 25.4376 99.3872 25.144C99.141 24.8457 98.9493 24.564 98.812 24.2989H98.6628V26.0176H96.1344ZM98.6557 20.5631C98.6557 21.2686 98.7551 21.8865 98.954 22.4168C99.1576 22.9471 99.4488 23.3614 99.8276 23.6597C100.211 23.9532 100.675 24.1 101.22 24.1C101.788 24.1 102.264 23.9485 102.647 23.6455C103.031 23.3377 103.32 22.9187 103.514 22.3884C103.713 21.8533 103.812 21.2449 103.812 20.5631C103.812 19.886 103.715 19.2847 103.521 18.7591C103.327 18.2335 103.038 17.8216 102.654 17.5233C102.271 17.225 101.793 17.0759 101.22 17.0759C100.67 17.0759 100.204 17.2203 99.8205 17.5091C99.437 17.7979 99.1458 18.2028 98.9469 18.7236C98.7528 19.2444 98.6557 19.8576 98.6557 20.5631Z" fill="#D4D4D8"/>
<path d="M88.0911 26.0175V15.1084H90.584V16.9266H90.6976C90.8965 16.2968 91.2374 15.8115 91.7203 15.4706C92.208 15.125 92.7644 14.9521 93.3894 14.9521C93.5314 14.9521 93.69 14.9593 93.8652 14.9735C94.0451 14.9829 94.1943 14.9995 94.3127 15.0232V17.3882C94.2038 17.3503 94.0309 17.3172 93.7942 17.2888C93.5622 17.2557 93.3373 17.2391 93.1195 17.2391C92.6507 17.2391 92.2293 17.3409 91.8553 17.5445C91.486 17.7433 91.1948 18.0203 90.9817 18.3754C90.7686 18.7306 90.6621 19.1401 90.6621 19.6041V26.0175H88.0911Z" fill="#D4D4D8"/>
<path d="M80.6816 26.2305C79.6163 26.2305 78.693 25.9961 77.9117 25.5274C77.1305 25.0586 76.5244 24.4029 76.0936 23.5601C75.6674 22.7173 75.4543 21.7324 75.4543 20.6055C75.4543 19.4786 75.6674 18.4914 76.0936 17.6439C76.5244 16.7963 77.1305 16.1382 77.9117 15.6694C78.693 15.2007 79.6163 14.9663 80.6816 14.9663C81.747 14.9663 82.6703 15.2007 83.4515 15.6694C84.2328 16.1382 84.8364 16.7963 85.2626 17.6439C85.6935 18.4914 85.9089 19.4786 85.9089 20.6055C85.9089 21.7324 85.6935 22.7173 85.2626 23.5601C84.8364 24.4029 84.2328 25.0586 83.4515 25.5274C82.6703 25.9961 81.747 26.2305 80.6816 26.2305ZM80.6958 24.1709C81.2735 24.1709 81.7564 24.0122 82.1447 23.695C82.5329 23.373 82.8218 22.9422 83.0112 22.4024C83.2053 21.8626 83.3024 21.2613 83.3024 20.5984C83.3024 19.9308 83.2053 19.3271 83.0112 18.7873C82.8218 18.2428 82.5329 17.8096 82.1447 17.4876C81.7564 17.1656 81.2735 17.0047 80.6958 17.0047C80.104 17.0047 79.6115 17.1656 79.2186 17.4876C78.8303 17.8096 78.5391 18.2428 78.345 18.7873C78.1556 19.3271 78.0609 19.9308 78.0609 20.5984C78.0609 21.2613 78.1556 21.8626 78.345 22.4024C78.5391 22.9422 78.8303 23.373 79.2186 23.695C79.6115 24.0122 80.104 24.1709 80.6958 24.1709Z" fill="#D4D4D8"/>
<path d="M71.7061 26.1738C71.2753 26.1738 70.9059 26.0223 70.5982 25.7192C70.2904 25.4162 70.1389 25.0469 70.1436 24.6113C70.1389 24.1851 70.2904 23.8206 70.5982 23.5175C70.9059 23.2145 71.2753 23.063 71.7061 23.063C72.1228 23.063 72.485 23.2145 72.7928 23.5175C73.1053 23.8206 73.2639 24.1851 73.2686 24.6113C73.2639 24.9001 73.1881 25.1629 73.0414 25.3996C72.8993 25.6364 72.7099 25.8258 72.4732 25.9678C72.2412 26.1051 71.9855 26.1738 71.7061 26.1738Z" fill="#D4D4D8"/>
<path d="M60.5058 19.6254V26.0174H57.9348V15.1084H60.3922V16.962H60.52C60.771 16.3513 61.1711 15.8659 61.7203 15.5061C62.2743 15.1462 62.9585 14.9663 63.7729 14.9663C64.5257 14.9663 65.1815 15.1273 65.7402 15.4493C66.3037 15.7712 66.7393 16.2376 67.047 16.8484C67.3595 17.4592 67.5134 18.2002 67.5087 19.0714V26.0174H64.9377V19.4691C64.9377 18.74 64.7483 18.1694 64.3695 17.7575C63.9954 17.3456 63.477 17.1396 62.8141 17.1396C62.3643 17.1396 61.9642 17.239 61.6138 17.4379C61.2681 17.632 60.9959 17.9138 60.797 18.2831C60.6029 18.6524 60.5058 19.0998 60.5058 19.6254Z" fill="#D4D4D8"/>
<path d="M52.72 26.0176V15.1085H55.291V26.0176H52.72ZM54.0126 13.5602C53.6054 13.5602 53.255 13.4253 52.9615 13.1554C52.6679 12.8808 52.5211 12.5517 52.5211 12.1682C52.5211 11.7799 52.6679 11.4509 52.9615 11.181C53.255 10.9064 53.6054 10.769 54.0126 10.769C54.4245 10.769 54.7749 10.9064 55.0637 11.181C55.3573 11.4509 55.5041 11.7799 55.5041 12.1682C55.5041 12.5517 55.3573 12.8808 55.0637 13.1554C54.7749 13.4253 54.4245 13.5602 54.0126 13.5602Z" fill="#D4D4D8"/>
<defs>
<filter id="filter0_d_84_244" x="0.520447" y="0.5" width="44.0007" height="44" filterUnits="userSpaceOnUse" color-interpolation-filters="sRGB">
<feFlood flood-opacity="0" result="BackgroundImageFix"/>
<feColorMatrix in="SourceAlpha" type="matrix" values="0 0 0 0 0 0 0 0 0 0 0 0 0 0 0 0 0 0 127 0" result="hardAlpha"/>
<feOffset dy="4"/>
<feGaussianBlur stdDeviation="2"/>
<feComposite in2="hardAlpha" operator="out"/>
<feColorMatrix type="matrix" values="0 0 0 0 0 0 0 0 0 0 0 0 0 0 0 0 0 0 0.25 0"/>
<feBlend mode="normal" in2="BackgroundImageFix" result="effect1_dropShadow_84_244"/>
<feBlend mode="normal" in="SourceGraphic" in2="effect1_dropShadow_84_244" result="shape"/>
</filter>
<linearGradient id="paint0_linear_84_244" x1="35.076" y1="6.63588" x2="10.3558" y2="29.9953" gradientUnits="userSpaceOnUse">
<stop stop-color="#F38856"/>
<stop offset="0.23" stop-color="#F0625C"/>
<stop offset="1" stop-color="#5C3DAB"/>
</linearGradient>
<linearGradient id="paint1_linear_84_244" x1="21.3812" y1="3.55168" x2="7.3203" y2="17.537" gradientUnits="userSpaceOnUse">
<stop stop-color="#F67986"/>
<stop offset="1" stop-color="#8951BA"/>
</linearGradient>
<linearGradient id="paint2_linear_84_244" x1="37.4629" y1="19.7196" x2="23.402" y2="33.7055" gradientUnits="userSpaceOnUse">
<stop stop-color="#F67986"/>
<stop offset="1" stop-color="#8951BA"/>
</linearGradient>
<linearGradient id="paint3_linear_84_244" x1="16.3672" y1="24.8306" x2="10.8658" y2="29.9779" gradientUnits="userSpaceOnUse">
<stop stop-color="#A267B9"/>
<stop offset="1" stop-color="#704BB4"/>
</linearGradient>
<linearGradient id="paint4_linear_84_244" x1="33.7473" y1="7.42022" x2="29.9916" y2="10.9349" gradientUnits="userSpaceOnUse">
<stop stop-color="#F7A8A5"/>
<stop offset="0.97" stop-color="#D074C4"/>
<stop offset="1" stop-color="#CF76A9"/>
</linearGradient>
</defs>
</svg>
